<?xml version="1.0" standalone="no"?>
<!DOCTYPE svg PUBLIC "-//W3C//DTD SVG 20010904//EN"
 "http://www.w3.org/TR/2001/REC-SVG-20010904/DTD/svg10.dtd">
<svg version="1.0" xmlns="http://www.w3.org/2000/svg"
 width="1577.000000pt" height="1700.000000pt" viewBox="0 0 1577.000000 1700.000000"
 preserveAspectRatio="xMidYMid meet">

<g transform="translate(0.000000,1700.000000) scale(0.100000,-0.100000)"
fill="#000000" stroke="none">
<path d="M10040 16980 c-613 -19 -1096 -59 -1587 -131 -1608 -235 -3016 -766
-4274 -1610 -377 -253 -762 -555 -1084 -848 -132 -121 -470 -457 -591 -588
-1186 -1285 -2020 -2904 -2353 -4568 -85 -424 -129 -813 -147 -1277 l-6 -178
1933 -2 1934 -3 0 -80 0 -80 -1125 -3 -1125 -2 3 -63 c10 -223 59 -620 107
-864 274 -1383 1001 -2627 2073 -3549 1372 -1180 3195 -1709 4992 -1448 914
133 1778 462 2547 970 1613 1066 2640 2795 2803 4719 5 66 10 146 10 177 l0
58 -1122 2 -1123 3 -3 83 -3 82 1936 0 1936 0 -5 113 c-3 61 -8 171 -12 242
-31 699 -208 1561 -466 2275 -383 1056 -938 1929 -1704 2680 -245 240 -424
394 -703 605 -298 224 -466 405 -539 578 -21 51 -26 79 -26 152 -1 79 2 97 27
147 127 259 578 446 1377 572 401 64 947 114 1577 147 128 7 237 16 243 19 11
7 158 1565 149 1574 -6 6 -335 23 -809 41 -382 14 -699 24 -1510 46 -485 13
-2976 20 -3330 9z m-3523 -3522 c-17 -65 -28 -425 -25 -768 4 -480 4 -480 137
-480 l61 0 0 -40 c0 -40 0 -40 -39 -40 -22 0 -93 7 -158 16 -110 16 -127 16
-258 -1 -179 -22 -190 -21 -190 25 0 35 0 35 50 38 105 5 115 9 138 60 21 45
22 61 25 457 3 459 3 458 -59 463 -27 2 -58 -8 -125 -42 -48 -26 -89 -46 -91
-46 -2 0 -3 20 -3 45 0 38 4 47 23 55 190 80 336 157 425 226 75 58 97 66 89
32z m1830 11 c183 -24 319 -137 376 -312 28 -87 27 -251 -2 -361 -80 -301
-338 -557 -698 -692 l-63 -24 0 34 c0 33 4 37 81 78 215 114 376 309 441 534
19 65 23 103 23 209 -1 72 -6 153 -12 181 -44 189 -143 297 -259 279 -97 -14
-166 -104 -184 -239 -24 -166 32 -311 141 -367 45 -23 113 -25 153 -4 38 20
38 20 34 -22 -3 -36 -5 -38 -63 -56 -88 -27 -214 -26 -287 2 -268 104 -287
534 -30 695 69 42 130 60 259 75 6 0 47 -4 90 -10z m-892 -41 c93 -23 173 -90
200 -167 21 -60 19 -156 -4 -208 -24 -51 -86 -112 -163 -160 -32 -20 -58 -39
-58 -42 0 -3 29 -23 63 -43 96 -56 162 -120 198 -193 30 -61 31 -69 27 -152
-5 -108 -32 -166 -107 -236 -203 -190 -607 -157 -723 59 -34 65 -41 111 -28
186 24 130 102 230 236 300 l67 36 -59 37 c-80 50 -150 120 -182 180 -33 63
-37 169 -9 226 75 151 324 232 542 177z m2010 -23 c88 -42 183 -142 234 -247
61 -125 84 -236 83 -393 0 -168 -20 -264 -77 -382 -62 -126 -124 -191 -233
-246 -83 -41 -88 -42 -186 -42 -95 0 -105 2 -177 36 -168 80 -283 260 -320
502 -15 93 -6 314 16 392 53 195 182 343 343 396 89 30 237 22 317 -16z
m-2420 -2099 c150 -16 275 -48 428 -108 93 -37 121 -55 209 -128 56 -47 113
-100 125 -119 l23 -34 0 -2438 c0 -1342 -1 -2439 -3 -2439 -2 0 -68 21 -148
46 -439 139 -682 143 -1369 23 -514 -89 -585 -101 -865 -139 -585 -79 -693
-80 -1160 -5 -105 17 -139 25 -245 55 l-65 19 3 2573 c2 1415 4 2573 5 2575 2
1 61 -7 132 -17 298 -43 455 -53 755 -46 329 7 413 15 910 91 201 30 435 66
520 79 187 28 535 34 745 12z m2471 -20 c132 -19 372 -55 534 -80 423 -65 531
-76 850 -82 300 -7 458 3 755 46 71 10 130 18 132 17 1 -2 4 -1161 5 -2575 l3
-2573 -55 -15 c-30 -9 -68 -20 -84 -25 -37 -12 -229 -44 -409 -69 -168 -24
-353 -25 -557 -5 -216 21 -698 90 -946 134 -533 97 -678 117 -924 131 -263 15
-438 -10 -733 -105 -77 -25 -141 -45 -143 -45 -2 0 -4 1097 -4 2438 1 2279 2
2439 18 2468 9 18 65 72 124 120 93 77 121 95 215 132 239 95 387 118 754 121
209 1 244 -2 465 -33z m-1682 -5317 l50 -19 69 25 c37 14 72 25 78 25 5 0 9
-63 9 -149 l0 -150 58 20 c185 64 346 89 572 89 201 0 384 -23 836 -105 562
-102 1040 -165 1250 -165 136 0 479 48 612 86 l52 15 0 109 c0 123 -9 112 100
130 36 6 73 13 83 16 16 5 17 -7 15 -197 l-3 -202 -115 -33 c-207 -61 -556
-114 -744 -114 -227 0 -699 61 -1271 165 -509 92 -645 108 -875 102 -162 -5
-200 -9 -305 -36 -194 -49 -259 -74 -265 -102 -6 -24 -7 -24 -153 -27 l-147
-3 0 25 c0 22 -10 28 -107 60 -189 62 -279 78 -478 83 -224 6 -367 -11 -867
-101 -360 -66 -837 -136 -1048 -156 -229 -20 -391 -11 -695 41 -113 19 -152
29 -325 79 l-70 21 0 193 c0 106 2 195 5 198 3 3 38 -1 78 -8 131 -25 117 -9
117 -133 l0 -110 53 -15 c132 -38 475 -86 611 -86 211 0 684 62 1251 165 438
80 641 105 840 105 221 0 384 -26 569 -90 33 -11 61 -20 63 -20 1 0 3 68 3
151 l0 150 23 -7 c12 -3 44 -15 71 -25z m-2944 -1184 c0 -23 -4 -25 -45 -25
-64 0 -122 -26 -143 -64 -14 -27 -17 -71 -20 -313 -2 -156 -1 -283 3 -283 23
0 461 423 521 503 72 96 55 157 -43 157 -39 0 -43 2 -43 25 l0 25 275 0 275 0
0 -24 c0 -20 -6 -24 -44 -28 -109 -13 -187 -72 -491 -378 l-240 -241 300 -295
c165 -162 332 -321 372 -353 82 -67 159 -107 238 -123 48 -9 55 -14 55 -35 l0
-23 -352 2 c-351 3 -353 3 -356 24 -3 18 3 22 38 27 55 7 80 31 80 75 0 31
-16 50 -167 204 -93 94 -226 224 -296 291 l-129 121 4 -301 c3 -287 4 -303 24
-330 28 -37 67 -56 132 -61 47 -4 52 -7 52 -28 l0 -24 -317 2 -318 3 -3 23
c-3 20 0 22 49 22 70 0 132 30 150 73 20 47 20 1231 1 1265 -18 32 -87 62
-144 62 -48 0 -64 10 -54 35 5 13 54 15 321 15 l315 0 0 -25z m1781 -531 l454
-555 2 458 c2 340 0 471 -10 507 -16 66 -48 89 -132 94 -61 4 -65 6 -65 28 l0
24 260 0 260 0 0 -25 c0 -24 -3 -25 -59 -25 -71 0 -120 -28 -138 -80 -9 -26
-12 -215 -12 -713 l-1 -678 -24 3 c-18 2 -146 152 -506 593 -265 325 -484 592
-486 595 -3 2 -3 -233 -2 -522 3 -510 4 -527 23 -548 29 -32 77 -50 135 -50
48 0 51 -2 48 -22 l-3 -23 -260 0 c-258 0 -260 0 -263 21 -3 20 2 22 62 26 46
3 74 10 93 24 59 44 58 28 61 650 l3 570 -48 52 c-54 57 -121 92 -197 101 -43
5 -52 10 -54 29 l-3 22 204 0 205 0 453 -556z m1680 533 c131 -30 231 -104
285 -208 39 -76 45 -199 15 -281 -43 -112 -136 -195 -270 -238 -49 -15 -69
-26 -63 -34 5 -6 85 -116 177 -244 93 -129 188 -256 212 -282 62 -69 123 -106
209 -126 66 -16 74 -20 74 -41 l0 -23 -198 0 -198 0 -254 350 -254 350 -74 0
-73 0 3 -289 c3 -272 4 -290 23 -311 29 -32 77 -50 135 -50 48 0 51 -2 48 -22
l-3 -23 -317 -3 -318 -2 0 25 c0 23 3 25 48 25 67 1 125 29 143 71 12 28 14
138 14 639 0 570 -1 608 -18 634 -24 36 -73 56 -137 56 -47 0 -50 1 -50 26 l0
26 388 -5 c299 -4 402 -8 453 -20z m1793 -69 c3 -50 6 -131 6 -180 0 -80 -2
-88 -19 -88 -16 0 -22 11 -31 58 -15 71 -23 88 -69 135 -51 53 -105 67 -268
67 l-134 0 3 -627 c3 -677 2 -664 56 -699 14 -9 54 -19 89 -22 58 -4 63 -7 63
-28 l0 -24 -315 0 -315 0 0 24 c0 22 5 24 60 28 39 3 70 11 88 25 59 43 57 22
60 702 l3 623 -158 -3 c-136 -4 -163 -7 -192 -24 -54 -32 -93 -88 -112 -163
-13 -53 -21 -67 -35 -67 -17 0 -19 8 -16 95 1 52 5 132 8 178 l6 82 607 0 608
0 7 -92z m724 70 c-3 -20 -10 -24 -68 -29 -76 -6 -104 -21 -128 -69 -15 -31
-17 -78 -20 -430 -4 -512 9 -638 77 -740 145 -217 597 -171 716 74 41 85 46
158 43 641 -3 479 -3 474 -52 505 -12 8 -50 16 -86 19 -58 5 -65 9 -68 29 l-3
22 265 0 266 0 0 -25 c0 -23 -3 -25 -52 -25 -60 0 -106 -23 -135 -67 -16 -25
-19 -67 -24 -493 -7 -500 -11 -542 -64 -657 -31 -69 -124 -161 -198 -197 -83
-41 -151 -56 -277 -63 -210 -10 -366 35 -474 137 -57 54 -107 138 -127 210 -8
30 -14 208 -18 530 -6 433 -9 489 -25 527 -22 52 -63 73 -140 73 -53 0 -56 1
-56 25 l0 25 326 0 325 0 -3 -22z"/>
<path d="M7227 13356 c-48 -18 -65 -32 -87 -75 -40 -81 -35 -140 22 -225 30
-47 115 -122 169 -151 25 -13 29 -12 66 20 22 18 55 62 74 97 29 55 34 72 34
133 -1 86 -27 143 -85 181 -48 32 -137 41 -193 20z"/>
<path d="M7194 12736 c-114 -77 -176 -182 -177 -300 0 -61 4 -80 29 -126 51
-93 130 -135 244 -128 87 5 142 40 183 118 66 126 1 308 -150 420 -37 27 -70
50 -73 50 -3 0 -28 -15 -56 -34z"/>
<path d="M9179 13342 c-66 -34 -110 -95 -142 -196 -20 -65 -22 -90 -21 -281 1
-237 20 -359 76 -492 34 -82 105 -168 155 -189 123 -52 239 48 279 240 18 85
20 360 4 492 -29 236 -94 395 -181 439 -45 24 -110 19 -170 -13z"/>
<path d="M8025 4715 c-5 -2 -27 -6 -47 -10 l-38 -6 0 -309 0 -310 53 0 c81 1
198 25 253 53 128 65 191 198 164 342 -29 153 -149 246 -314 244 -34 0 -65 -2
-71 -4z"/>
<path d="M400 7514 c190 -52 354 -99 365 -103 19 -8 22 -26 38 -197 10 -104
20 -208 23 -231 l6 -42 -351 -175 c-263 -132 -351 -180 -351 -194 1 -9 22
-123 48 -252 l48 -235 389 -28 c214 -15 392 -31 396 -35 4 -4 27 -77 53 -162
25 -85 54 -183 65 -217 l19 -61 -309 -239 c-170 -131 -309 -242 -309 -247 0
-5 43 -114 96 -241 l96 -231 390 49 c214 27 391 47 393 45 19 -22 215 -404
211 -412 -2 -6 -117 -141 -255 -300 -138 -159 -251 -291 -251 -293 0 -9 281
-423 288 -423 4 0 169 54 367 120 198 66 365 120 370 120 12 0 301 -350 298
-359 -1 -3 -88 -158 -194 -344 l-192 -339 179 -179 c98 -98 182 -179 185 -179
4 0 157 86 340 191 184 105 337 191 340 192 3 1 87 -64 186 -146 l180 -147
-123 -373 c-68 -204 -124 -373 -124 -374 0 -2 95 -66 210 -143 138 -92 215
-138 224 -133 7 4 140 118 295 253 155 135 286 246 290 248 5 2 396 -202 410
-214 2 -2 -18 -177 -45 -389 -29 -236 -44 -389 -38 -394 11 -10 446 -191 460
-191 5 0 116 139 248 309 l238 308 222 -67 221 -67 7 -49 c3 -27 16 -195 28
-374 11 -179 23 -334 25 -345 4 -18 32 -26 254 -70 138 -27 252 -47 254 -45 3
3 82 160 177 350 95 190 173 346 174 347 4 5 455 -43 461 -49 3 -3 52 -174
108 -379 l103 -374 256 -3 c238 -2 257 -1 262 15 3 10 49 178 102 373 53 195
102 360 108 366 9 9 456 58 462 51 1 -1 79 -157 174 -347 95 -190 174 -347
177 -350 2 -2 116 18 252 45 l249 49 6 55 c3 31 15 200 26 376 12 176 25 329
30 340 6 16 50 33 216 83 115 34 214 62 221 62 6 0 118 -137 249 -305 130
-168 241 -305 245 -305 12 0 452 181 462 190 4 4 -13 171 -38 371 -25 200 -46
375 -48 388 -2 22 17 35 198 132 110 60 203 108 207 109 6 0 191 -158 536
-458 l62 -55 214 142 214 143 -124 370 c-68 204 -121 375 -118 379 8 14 333
279 349 285 8 3 166 -81 351 -186 l337 -192 182 184 183 183 -194 339 c-118
206 -191 343 -186 350 64 85 286 346 295 346 7 0 175 -54 375 -121 200 -67
365 -119 366 -118 2 2 67 98 145 213 l141 209 -53 61 c-389 447 -458 530 -454
546 10 39 209 400 220 400 7 0 172 -20 367 -45 195 -25 367 -45 381 -45 25 0
32 13 120 226 52 125 95 230 97 235 2 4 -137 116 -308 249 -171 134 -309 248
-307 254 2 6 32 106 67 222 l63 211 56 6 c31 3 206 16 390 28 314 22 334 25
342 44 4 11 27 115 49 230 23 116 44 220 47 232 4 20 -25 37 -346 198 -295
147 -351 178 -351 196 0 24 41 443 43 446 1 0 162 45 357 98 195 54 357 99
359 101 2 2 -300 4 -671 4 l-676 0 -7 -87 c-14 -201 -38 -428 -61 -583 -408
-2770 -2580 -4985 -5337 -5445 -388 -64 -672 -88 -1077 -88 -317 0 -500 10
-780 44 -1274 152 -2458 672 -3446 1513 -154 131 -554 529 -680 676 -936 1091
-1469 2378 -1574 3795 -5 77 -10 148 -10 158 0 16 -38 17 -672 16 l-673 0 345
-95z"/>
</g>
</svg>
